<?xml version="1.0" standalone="no"?>
<!DOCTYPE svg PUBLIC "-//W3C//DTD SVG 1.1//EN" "http://www.w3.org/Graphics/SVG/1.1/DTD/svg11.dtd">
<svg xmlns="http://www.w3.org/2000/svg">
<metadata>Generated by Fontastic.me</metadata>
<defs>
<font id="untitled-font-3" horiz-adv-x="512">
<font-face font-family="untitled-font-3" units-per-em="512" ascent="480" descent="-32"/>
<missing-glyph horiz-adv-x="512" />

<glyph unicode="&#98;" d="M411 202c-4 0-7 0-10 0-17 22-42 41-72 54 25 24 40 58 40 96 0 75-61 135-135 135-75 0-136-60-136-135 0-38 16-72 41-96-59-25-99-72-99-126 0-80 87-107 194-107 56 0 107 8 142 26 10-5 22-8 35-8 44 0 80 36 80 81 0 44-36 80-80 80z m-284 150c0 59 48 107 107 107 59 0 107-48 107-107 0-59-48-107-107-107-59 0-107 48-107 107z m-57-218c0 45 38 85 92 103 21-13 45-20 72-20 26 0 50 7 71 20 29-10 52-25 69-44-26-13-44-40-44-71 0-21 8-40 21-54-30-13-71-19-117-19-91 0-164 21-164 85z m341-67c-31 0-55 25-55 55 0 30 24 54 55 54 30 0 54-24 54-54 0-30-24-55-54-55z m11 97l-23 0 0-31-30 0 0-23 30 0 0-30 23 0 0 30 30 0 0 23-30 0z"/>
<glyph unicode="&#99;" d="M340 352c11 0 20 8 20 19l0 88c0 10-9 19-20 19-11 0-19-9-19-19l0-88c0-11 8-19 19-19z m-38 77l-98 0 0-29 98 0 0 29z m114 0l-37 0 0-29 38 0c11 0 20-9 20-20l0-67-368 0 0 67c0 11 9 20 20 20l38 0 0 29-36 0c-28 0-51-23-51-51l0-295c0-28 22-51 50-51l326 0c28 0 50 23 50 51l0 295c0 28-22 51-50 51z m21-348c0-11-9-20-20-20l-328 0c-11 0-20 9-20 20l0 203 368 0z m-291 116c16 0 29 13 29 29 0 16-13 29-29 29-16 0-29-13-29-29 0-16 13-29 29-29z m107 0c16 0 29 13 29 29 0 16-13 29-29 29-16 0-29-13-29-29 0-16 13-29 29-29z m-108-107c17 0 30 13 30 29 0 16-13 29-30 29-16 0-29-13-29-29 0-16 13-29 29-29z m108 0c16 0 29 13 29 29 0 16-13 29-29 29-16 0-29-13-29-29 0-16 13-29 29-29z m106 107c17 0 30 13 30 29 0 16-13 29-30 29-16 0-29-13-29-29 0-16 13-29 29-29z m-194 155c11 0 20 8 20 19l0 88c0 10-9 19-20 19-10 0-19-9-19-19l0-88c0-11 9-19 19-19z"/>
<glyph unicode="&#100;" d="M395 382l106 0 0-29-106 0z m0-60l106 0 0-29-106 0z m0-61l106 0 0-29-106 0z m35-60l71 0 0-29-71 0z m0-60l71 0 0-30-71 0z m-124 116c25 24 40 58 40 96 0 75-61 136-136 136-75 0-136-61-136-136 0-38 16-72 41-96-59-25-99-73-99-127 0-80 87-107 194-107 107 0 194 27 194 107 0 54-39 102-98 127z m-203 96c0 60 48 108 107 108 60 0 108-48 108-108 0-59-48-107-108-107-59 0-107 48-107 107z m107-304c-91 0-164 21-164 85 0 46 38 85 92 104 21-13 46-21 72-21 27 0 51 8 72 21 55-19 93-58 93-104 0-64-74-85-165-85z"/>
<glyph unicode="&#101;" d="M434 436l-351 0c-22 0-40-18-40-40l0-297c0-22 18-40 40-40l351 0c22 0 40 18 40 40l0 297c0 22-18 40-40 40z m-351-27l351 0c7 0 13-6 13-13l0-159c-21 18-59 42-104 42-42 0-83-32-123-64-30-24-62-48-84-48-31 0-57 22-66 31l0 198c0 7 6 13 13 13z m351-323l-351 0c-7 0-13 6-13 13l0 64c16-11 39-23 66-23 32 0 65 26 101 54 36 29 73 58 106 58 58 0 104-51 104-52l0 1 0-102c0-7-6-13-13-13z m-257 161c30 0 54 25 54 54 0 30-24 54-54 54-29 0-54-24-54-54 0-29 25-54 54-54z m1 81c14 0 27-12 27-26 0-15-13-27-27-27-15 0-27 12-27 27 0 14 12 26 27 26z"/>
<glyph unicode="&#102;" d="M87 402l0-302c0-12 10-22 22-22l302 0c12 0 22 10 22 22l0 302c0 12-10 22-22 22l-302 0c-12 0-22-10-22-22z m-35 11c0 25 21 46 46 46l324 0c25 0 46-21 46-46l0-324c0-25-21-46-46-46l-324 0c-25 0-46 21-46 46z m61-105l24 30 126-122 119 124 25-30-143-148z"/>
<glyph unicode="&#103;" d="M225 72l240 240c6 6 10 15 11 27 1 12 0 25-5 39-4 13-11 24-20 33l-28 28c-9 9-20 16-34 21-13 4-26 6-38 4-12-1-21-5-27-11l-239-241-42-182 182 42z m149 268c8-8 14-20 17-33 3-13 2-24-2-33 0 0 0 0 0-1l0-1-134-136c-6 7-10 15-13 25-3 11-5 20-5 28 0 9 0 16 2 23l131 132z m-40 88c7 7 19 10 35 8 16-2 29-8 39-18l22-22c10-10 16-23 18-39 2-16-1-28-8-35l-21-20c-2 22-10 40-24 53l-28 28c-14 14-31 22-53 24z m-55-56c7 8 18 10 34 8 16-2 29-8 39-18l4-4-131-132c-7-2-14-2-23-2-8 0-18 2-28 5-10 3-18 7-25 13z m-170-171l24 24c11-8 23-14 37-19 15-5 28-8 40-8 0-12 3-26 8-40 5-15 12-28 20-38l-24-24-67-13c-4 14-11 25-19 33-8 8-18 14-32 19z"/>
<glyph unicode="&#104;" d="M248 483c-91 0-164-74-164-165 0-34 11-67 29-93 1-2 2-3 3-5l112-141c5-7 13-11 20-11 8 0 15 4 21 11l112 141c1 2 2 3 2 5 19 26 30 59 30 93 0 91-74 165-165 165z m108-240l0-1-1-1-1-1-106-134-106 134 0 1-1 1-1 2c-15 22-23 48-23 74 0 73 59 132 131 132 73 0 132-59 132-132 0-26-8-52-24-75z m-108 141c-36 0-66-29-66-66 0-36 30-65 66-65 37 0 66 29 66 65 0 37-29 66-66 66z m0-98c-18 0-33 14-33 32 0 19 15 33 33 33 18 0 33-14 33-33 0-18-15-32-33-32z m88-181c10-5 16-12 16-19 0-21-46-38-104-38-57 0-103 17-103 38 0 7 5 14 15 19-17-8-27-20-27-32 0-28 52-51 115-51 64 0 115 23 115 51 0 12-10 24-27 32z"/>
<glyph unicode="&#105;" d="M260 477c-124 0-224-100-224-224 0-124 100-225 224-225 124 0 225 101 225 225 0 124-101 224-225 224z m-113-379c3 59 53 107 113 107 61 0 110-48 114-107-32-24-71-38-114-38-42 0-81 14-113 38z m57 195c0 31 25 56 56 56 31 0 56-25 56-56 0-31-25-56-56-56-31 0-56 25-56 56z m198-170c-10 47-42 84-85 102 19 17 32 41 32 68 0 49-40 88-89 88-48 0-88-39-88-88 0-27 12-51 32-68-43-18-75-55-86-102-31 35-50 80-50 130 0 106 86 192 192 192 106 0 193-86 193-192 0-50-19-95-51-130z"/>
<glyph unicode="&#106;" d="M256 74l-40 0-111-60 0 111c-55 38-90 94-90 161 0 116 108 211 241 211 134 0 242-95 242-211 0-117-108-212-242-212z m0 393c-116 0-211-81-211-181 0-62 36-118 90-151l0-67 81 37 40 0c117 0 212 81 212 181 0 100-95 181-212 181z m121-211c-17 0-30 13-30 30 0 16 13 30 30 30 17 0 30-14 30-30 0-17-13-30-30-30z m-121 0c-16 0-30 13-30 30 0 16 14 30 30 30 17 0 30-14 30-30 0-17-13-30-30-30z m-121 0c-16 0-30 13-30 30 0 16 14 30 30 30 17 0 31-14 31-30 0-17-14-30-31-30z"/>
<glyph unicode="&#107;" d="M231 386l-107 93-19 1c-204-167 104-447 274-448l8 3 96 64 2 22-108 93-16 2-66-36c0 0-32 14-65 48-59 62-57 77-57 77l59 61z m-30-11l-58-61 0-20c0 0 33-47 72-85 38-37 69-52 69-52l16-2 65 31 87-74-77-51c-174 5-400 258-261 389z"/>
<glyph unicode="&#109;" d="M259 476c122 0 221-99 221-221 0-24-4-47-11-69-7-20-22-35-34-53l0-77c0-10-12-22-22-22l10 0-164 0c-61 0-117 24-157 64l0 0 0 0c-40 40-64 96-64 157 0 122 99 221 221 221z m-111-177l221 0c5 0 10 4 10 10 0 6-5 10-10 10l-221 0c-5 0-10-4-10-10 0-6 5-10 10-10z m0-54l221 0c5 0 10 4 10 10 0 5-5 10-10 10l-221 0c-5 0-10-5-10-10 0-6 5-10 10-10z m0-55l221 0c5 0 10 5 10 10 0 6-5 11-10 11l-221 0c-5 0-10-5-10-11 0-5 5-10 10-10z m111 252c-104 0-188-84-188-187 0-52 22-99 55-133l0 0c34-33 81-54 133-54l143-1 0 66c0 0 4 6 8 12 11 15 20 33 26 52 6 18 10 37 10 58 0 101-82 187-187 187z"/>
<glyph unicode="&#110;" d="M438 420l-47 0 0 10c0 5-5 10-11 10l-56 0c-3 13-10 24-19 33-12 12-30 20-49 20-19 0-36-8-49-20-8-9-15-20-18-33l-56 0c-6 0-11-5-11-10l0-10-40 0c-10 0-21-11-21-21l0-356c0-9 11-21 21-21l357 0c10 0 20 12 20 21l0 356c0 10-11 21-21 21z m-216 38c9 9 21 14 34 14 14 0 26-5 34-14 5-5 9-11 12-18l-91 0c2 7 6 13 11 18z m-77-38l220 0 0-31-220 0z m282-366l-335 0 0 335 32 0 0-11c0-6 4-10 10-10l241 0c6 0 11 4 11 10l0 11 41 0 0-335z m-277 178c-9 0-16-7-16-16 0-9 7-16 16-16 9 0 16 7 16 16 0 9-7 16-16 16z m0-73c-9 0-16-8-16-16 0-9 7-16 16-16 9 0 16 7 16 16 0 8-7 16-16 16z m204 146l-146 0c-14 0-14-31 0-31l146 0c17 0 17 31 0 31z m-204 0c-9 0-16-7-16-16 0-8 7-15 16-15 9 0 16 7 16 15 0 9-7 16-16 16z m204-147l-146 0c-14 0-14-31 0-31l146 0c17 0 17 31 0 31z m0 74l-146 0c-14 0-14-32 0-32l146 0c17 0 17 32 0 32z"/>
<glyph unicode="&#111;" d="M484 275c-1 5-3 10-6 14l0 0 0 0c-2 2-3 4-5 5l-75 75 0 46c0 8-6 14-14 14l-45 0-53 44c-16 16-44 16-60 0l-52-44-47 0c-8 0-15-6-15-14l0-47-72-72c-8-5-13-14-13-24l0-213c0-16 13-28 28-28l400 0c16 0 29 12 29 28l0 212c0 2 0 3 0 4z m-337-112l-92-84 0 164z m27-13c2 1 4 2 5 4 1 0 2 1 2 2l62 57c3 3 7 4 11 4 4 0 8-1 11-3l171-155-360 0z m191 11l90 80 0-161z m63 139l-1 0 25-24-54-48 0 102z m-182 153c3 3 6 4 10 4 4 0 8-1 10-4l29-24-78 0z m124-52l0-198-26-22-61 54c-17 13-41 14-59 0l-56-52-27 23 0 195z m-297-112l39 39 0-97-52 46 12 12z"/>
<glyph unicode="&#113;" d="M481 375l-227-236c-11-12-29-12-40 0-11 11-11 29 0 41l227 236c11 11 29 11 40 0 11-11 11-30 0-41z m-92 48l-268 0c-29-1-35-10-35-41l0-261c1-26 10-32 40-32l242 0c34 0 41 8 41 41l0 105c0 12 9 21 20 21 11 0 20-9 20-21l0-146c0-23-18-42-40-42l-324 0c-21 0-39 18-40 40l0 336c0 23 17 41 39 42l305 0c11 0 20-9 20-21 0-11-9-21-20-21z"/>
<glyph unicode="&#114;" d="M256 425c-100 0-181-81-181-181 0-100 81-181 181-181 100 0 181 81 181 181 0 100-81 181-181 181z m94-129l-124-121c-1-1-1-3-2-4l-6-5c-3-4-7-5-9-4l-59 62c-1 2 0 6 4 9l5 6c4 3 7 4 9 3l44-47 121 118c3 4 8 4 11 0l6-5c3-4 3-9 0-12z"/>
<glyph unicode="&#112;" d="M101 365l309 0c6 0 10-4 10-10l0-205c0-5-4-10-10-10l-309 0c-6 0-10 5-10 10l0 205c0 6 4 10 10 10z"/>
<glyph unicode="&#115;" d="M440 359l-358 0c-22 0-40-17-40-39l0-128c0-22 18-39 40-39l358 0c22 0 40 17 40 39l0 128c0 22-18 39-40 39z m-195-158c0-22-18-41-40-41l-110 0c-23 0-41 19-41 41l0 110c0 22 18 40 41 40l110 0c22 0 40-18 40-40z"/>
<glyph unicode="&#116;" d="M260 480c-126 0-228-102-228-228 0-126 102-228 228-228 126 0 228 102 228 228 0 126-102 228-228 228z m26-398c8-22 18-44 18-44-40 19-68 37-86 49-72 20-125 85-125 163 0 93 76 169 170 169 94 0 170-76 170-169 0-86-64-157-147-168z"/>
<glyph unicode="&#117;" d="M403 212c-3 0-6 0-8-1-16 21-40 39-68 51 23 22 38 54 38 89 0 69-57 125-126 125-69 0-125-56-125-125 0-35 14-67 37-90-54-23-91-66-91-116 0-75 80-99 179-99 52 0 99 7 132 24 10-4 21-7 32-7 41 0 75 33 75 74 0 41-34 75-75 75z m-263 139c0 54 44 99 99 99 55 0 99-45 99-99 0-55-44-99-99-99-55 0-99 44-99 99z m-53-203c0 43 35 79 86 96 19-12 42-19 66-19 25 0 47 7 66 19 27-9 49-23 64-41-24-12-40-37-40-66 0-19 7-36 19-49-28-13-66-18-109-18-84 0-152 19-152 78z m316-61c-28 0-51 22-51 50 0 28 23 51 51 51 28 0 51-23 51-51 0-28-23-50-51-50z m-39 61l78 0 0-21-78 0z"/>
<glyph unicode="&#118;" d="M227 118c-1-2-1-4-1-5 0-14 14-25 30-25 17 0 30 11 30 25 0 1 0 3-1 5z m168 47c-6 37-49 60-49 60l0 96c-11 59-70 53-70 53 1 33-20 30-20 30-24 0-20-30-20-30-66-3-69-50-69-50l0-99c-29-8-46-41-50-60-2-10 0-40 0-40l278 0c0 0 2 30 0 40z"/>
<glyph unicode="&#97;" d="M452 402l-389 0c-19 0-35-16-35-35l0-259c0-20 16-35 35-35l389 0c20 0 35 15 35 35l0 259c1 19-15 35-35 35z m-389-27l389 0c5 0 8-3 8-8l0-51-200-83-205 84 0 50c0 5 4 8 8 8z m389-275l-389 0c-4 0-8 3-8 8l0 179 200-82c0 0 0 0 0 0 0 0 0 0 0 0 1 0 1 0 1 0 0 0 1 0 1 0 0 0 0 0 0 0 1 0 1 0 2 0 0-1 0-1 0-1 0 0 1 0 1 0l0 0c0 0 1 0 1 0 0 0 0 0 0 1 1 0 1 0 2 0 0 0 0 0 0 0 1 0 1 0 2 0 0 0 0 0 0 0 0 0 0 0 0 1l195 81 0-179c0-5-3-8-8-8z"/>
<glyph unicode="&#108;" d="M431 163l-350 0c-19 0-35 16-35 36l0 214c0 20 16 36 35 36l350 0c19 0 35-16 35-36l0-214c0-20-16-36-35-36z m0 214c0 20-16 36-35 36l-280 0c-19 0-35-16-35-36l0-142c0-20 16-36 35-36l280 0c19 0 35 16 35 36l0 142z m-385-265l420 0 0-45-420 0z"/>
</font>
</defs>
</svg>
